<svg xmlns="http://www.w3.org/2000/svg" width="180" height="180" viewBox="0 0 180 180" version="1.1">
	<path d="M 0 90.005 L 0 180.011 90.250 179.755 L 180.500 179.500 180.755 89.750 L 181.011 -0 90.505 -0 L 0 0 0 90.005 M 0.479 90.500 C 0.479 140, 0.601 160.104, 0.750 135.175 C 0.899 110.246, 0.899 69.746, 0.750 45.175 C 0.601 20.604, 0.479 41, 0.479 90.500 M 69.951 64.168 C 64.203 67.473, 58.938 70.643, 58.250 71.211 C 57.370 71.939, 57 76.007, 57 84.967 L 57 97.689 78.016 109.845 C 89.575 116.530, 99.250 122, 99.516 122 C 99.782 122, 100 116.150, 100 109 C 100 100.769, 100.377 96, 101.027 96 C 102.421 96, 123.003 83.947, 122.987 83.141 C 122.977 82.595, 92.956 64.857, 83.534 59.829 L 80.403 58.159 69.951 64.168" stroke="none" fill="black" fill-rule="evenodd"/>
</svg>